<svg xmlns="http://www.w3.org/2000/svg" xmlns:xlink="http://www.w3.org/1999/xlink" width="2000" zoomAndPan="magnify" viewBox="180 580 1138 297" height="2000" preserveAspectRatio="xMidYMid meet" version="1.0"><defs><g/><clipPath id="bc14f8c02b"><rect x="0" width="1138" y="0" height="297"/></clipPath></defs><g transform="matrix(1, 0, 0, 1, 180, 580)"><g clip-path="url(#bc14f8c02b)"><g fill="#f0b400" fill-opacity="1"><g transform="translate(1.13199, 211.036831)"><g><path d="M 49.4375 -131 C 49.300781 -131.5625 49.234375 -132.085938 49.234375 -132.578125 C 49.234375 -133.066406 49.234375 -133.523438 49.234375 -133.953125 C 49.234375 -138.878906 50.601562 -142.75 53.34375 -145.5625 C 56.09375 -148.382812 59.300781 -149.796875 62.96875 -149.796875 C 67.050781 -149.796875 70.320312 -148.632812 72.78125 -146.3125 C 75.25 -143.988281 77.148438 -140.992188 78.484375 -137.328125 C 79.828125 -133.671875 80.707031 -129.796875 81.125 -125.703125 C 81.550781 -121.617188 81.765625 -117.75 81.765625 -114.09375 C 81.765625 -107.613281 81.34375 -101.0625 80.5 -94.4375 C 79.65625 -87.820312 79.234375 -81.203125 79.234375 -74.578125 C 79.234375 -68.097656 79.796875 -61.617188 80.921875 -55.140625 C 82.046875 -48.660156 82.609375 -42.179688 82.609375 -35.703125 C 82.609375 -29.648438 81.304688 -24.367188 78.703125 -19.859375 C 76.097656 -15.347656 72.785156 -11.648438 68.765625 -8.765625 C 64.753906 -5.878906 60.566406 -3.734375 56.203125 -2.328125 C 51.835938 -0.921875 47.820312 -0.21875 44.15625 -0.21875 C 37.394531 -0.21875 31.125 -2.398438 25.34375 -6.765625 C 19.570312 -11.128906 14.785156 -16.757812 10.984375 -23.65625 C 7.179688 -30.5625 4.925781 -37.816406 4.21875 -45.421875 C 5.351562 -50.066406 7.328125 -53.585938 10.140625 -55.984375 C 12.953125 -58.378906 15.910156 -59.578125 19.015625 -59.578125 C 21.972656 -59.578125 24.820312 -58.484375 27.5625 -56.296875 C 30.3125 -54.117188 32.320312 -50.632812 33.59375 -45.84375 C 35.425781 -39.082031 37.429688 -34.785156 39.609375 -32.953125 C 41.796875 -31.128906 43.804688 -30.21875 45.640625 -30.21875 C 48.597656 -30.21875 50.601562 -31.378906 51.65625 -33.703125 C 52.71875 -36.023438 53.25 -38.945312 53.25 -42.46875 C 53.25 -47.257812 52.71875 -52.398438 51.65625 -57.890625 C 50.601562 -63.378906 50.078125 -67.675781 50.078125 -70.78125 C 50.078125 -79.375 50.425781 -87.507812 51.125 -95.1875 C 51.832031 -102.863281 52.1875 -110.570312 52.1875 -118.3125 C 52.1875 -120.289062 52.007812 -122.226562 51.65625 -124.125 C 51.300781 -126.03125 50.5625 -128.320312 49.4375 -131 Z M 49.4375 -131 "/></g></g></g><g fill="#f0b400" fill-opacity="1"><g transform="translate(96.41657, 211.036831)"><g><path d="M 91.90625 -32.109375 C 93.03125 -30.285156 94.578125 -29.054688 96.546875 -28.421875 C 98.523438 -27.785156 100.710938 -27.394531 103.109375 -27.25 C 105.503906 -27.113281 107.789062 -26.832031 109.96875 -26.40625 C 112.15625 -25.988281 113.953125 -25.039062 115.359375 -23.5625 C 116.765625 -22.082031 117.46875 -19.722656 117.46875 -16.484375 C 117.46875 -12.253906 116.234375 -8.800781 113.765625 -6.125 C 111.304688 -3.445312 108.207031 -1.4375 104.46875 -0.09375 C 100.738281 1.238281 96.796875 2.148438 92.640625 2.640625 C 88.484375 3.128906 84.71875 3.375 81.34375 3.375 C 76.132812 3.375 71.0625 2.457031 66.125 0.625 C 61.195312 -1.195312 56.550781 -4.363281 52.1875 -8.875 C 49.507812 -11.6875 46.898438 -13.757812 44.359375 -15.09375 C 41.828125 -16.4375 39.082031 -17.109375 36.125 -17.109375 C 34.007812 -17.109375 31.6875 -16.6875 29.15625 -15.84375 C 26.625 -15 24.160156 -14.578125 21.765625 -14.578125 C 18.660156 -14.578125 15.414062 -15.5625 12.03125 -17.53125 C 8.65625 -19.507812 5.804688 -22.046875 3.484375 -25.140625 C 1.160156 -28.242188 0 -31.414062 0 -34.65625 C 0 -39.300781 1.65625 -43.3125 4.96875 -46.6875 C 8.28125 -50.070312 11.976562 -51.765625 16.0625 -51.765625 C 16.90625 -51.765625 17.785156 -51.726562 18.703125 -51.65625 C 19.617188 -51.582031 20.425781 -51.546875 21.125 -51.546875 C 25.914062 -51.546875 29.648438 -52.847656 32.328125 -55.453125 C 35.003906 -58.066406 37.679688 -61.414062 40.359375 -65.5 C 42.753906 -70.144531 46.164062 -74.15625 50.59375 -77.53125 C 55.03125 -80.914062 59.992188 -83.523438 65.484375 -85.359375 C 70.984375 -87.191406 76.335938 -88.109375 81.546875 -88.109375 C 87.742188 -88.109375 92.601562 -86.453125 96.125 -83.140625 C 99.65625 -79.828125 102.160156 -75.738281 103.640625 -70.875 C 105.117188 -66.019531 105.859375 -61.335938 105.859375 -56.828125 C 105.859375 -54.441406 105.46875 -52.050781 104.6875 -49.65625 C 103.914062 -47.257812 102.472656 -44.863281 100.359375 -42.46875 C 98.953125 -40.914062 97.191406 -39.578125 95.078125 -38.453125 C 92.960938 -37.328125 91.90625 -35.210938 91.90625 -32.109375 Z M 91.90625 -32.109375 "/></g></g></g><g fill="#f0b400" fill-opacity="1"><g transform="translate(220.22313, 211.036831)"><g><path d="M 93.171875 -123.171875 C 93.171875 -117.960938 91.832031 -113.5625 89.15625 -109.96875 C 86.476562 -106.375 82.609375 -104.015625 77.546875 -102.890625 C 72.472656 -102.191406 69.367188 -100.503906 68.234375 -97.828125 C 67.109375 -95.148438 66.546875 -91.976562 66.546875 -88.3125 C 66.546875 -83.800781 66.160156 -79.328125 65.390625 -74.890625 C 64.617188 -70.460938 64.234375 -66.835938 64.234375 -64.015625 C 64.234375 -61.617188 65.144531 -59.1875 66.96875 -56.71875 C 68.800781 -54.257812 70.597656 -52.039062 72.359375 -50.0625 C 74.117188 -48.09375 75 -46.40625 75 -45 C 75 -42.601562 72.675781 -40.347656 68.03125 -38.234375 C 64.082031 -36.410156 61.441406 -34.019531 60.109375 -31.0625 C 58.773438 -28.101562 57.96875 -24.789062 57.6875 -21.125 C 57.394531 -14.644531 56.894531 -8.023438 56.1875 -1.265625 C 55.488281 5.492188 55.140625 12.328125 55.140625 19.234375 C 55.140625 22.472656 54.503906 25.921875 53.234375 29.578125 C 51.972656 33.242188 50.210938 36.378906 47.953125 38.984375 C 45.703125 41.585938 42.957031 42.890625 39.71875 42.890625 C 36.476562 42.890625 33.34375 42.039062 30.3125 40.34375 C 27.289062 38.65625 25.78125 36.191406 25.78125 32.953125 C 25.78125 31.546875 25.988281 30.140625 26.40625 28.734375 C 28.382812 22.535156 29.40625 16.085938 29.46875 9.390625 C 29.539062 2.703125 30 -3.804688 30.84375 -10.140625 C 30.988281 -10.847656 31.09375 -11.585938 31.15625 -12.359375 C 31.226562 -13.128906 31.265625 -13.867188 31.265625 -14.578125 C 31.265625 -17.816406 30.453125 -20.175781 28.828125 -21.65625 C 27.210938 -23.132812 24.363281 -23.875 20.28125 -23.875 C 16.757812 -24.15625 13.554688 -25.597656 10.671875 -28.203125 C 7.785156 -30.804688 6.34375 -33.378906 6.34375 -35.921875 C 6.34375 -37.046875 6.941406 -38.554688 8.140625 -40.453125 C 9.335938 -42.359375 10.921875 -43.59375 12.890625 -44.15625 C 18.804688 -46.125 23.414062 -48.796875 26.71875 -52.171875 C 30.03125 -55.554688 32.460938 -59.394531 34.015625 -63.6875 C 35.566406 -67.988281 36.585938 -72.566406 37.078125 -77.421875 C 37.566406 -82.285156 38.023438 -87.1875 38.453125 -92.125 C 39.160156 -100.707031 39.828125 -109.296875 40.453125 -117.890625 C 41.085938 -126.484375 41.828125 -135.078125 42.671875 -143.671875 C 43.941406 -156.910156 49.507812 -163.53125 59.375 -163.53125 C 65.851562 -163.53125 71.660156 -161.769531 76.796875 -158.25 C 81.941406 -154.726562 85.992188 -150.21875 88.953125 -144.71875 C 91.910156 -139.226562 93.390625 -133.457031 93.390625 -127.40625 C 93.390625 -126.695312 93.390625 -125.988281 93.390625 -125.28125 C 93.390625 -124.582031 93.316406 -123.878906 93.171875 -123.171875 Z M 93.171875 -123.171875 "/></g></g></g><g fill="#f0b400" fill-opacity="1"><g transform="translate(303.042527, 211.036831)"><g><path d="M 93.171875 -123.171875 C 93.171875 -117.960938 91.832031 -113.5625 89.15625 -109.96875 C 86.476562 -106.375 82.609375 -104.015625 77.546875 -102.890625 C 72.472656 -102.191406 69.367188 -100.503906 68.234375 -97.828125 C 67.109375 -95.148438 66.546875 -91.976562 66.546875 -88.3125 C 66.546875 -83.800781 66.160156 -79.328125 65.390625 -74.890625 C 64.617188 -70.460938 64.234375 -66.835938 64.234375 -64.015625 C 64.234375 -61.617188 65.144531 -59.1875 66.96875 -56.71875 C 68.800781 -54.257812 70.597656 -52.039062 72.359375 -50.0625 C 74.117188 -48.09375 75 -46.40625 75 -45 C 75 -42.601562 72.675781 -40.347656 68.03125 -38.234375 C 64.082031 -36.410156 61.441406 -34.019531 60.109375 -31.0625 C 58.773438 -28.101562 57.96875 -24.789062 57.6875 -21.125 C 57.394531 -14.644531 56.894531 -8.023438 56.1875 -1.265625 C 55.488281 5.492188 55.140625 12.328125 55.140625 19.234375 C 55.140625 22.472656 54.503906 25.921875 53.234375 29.578125 C 51.972656 33.242188 50.210938 36.378906 47.953125 38.984375 C 45.703125 41.585938 42.957031 42.890625 39.71875 42.890625 C 36.476562 42.890625 33.34375 42.039062 30.3125 40.34375 C 27.289062 38.65625 25.78125 36.191406 25.78125 32.953125 C 25.78125 31.546875 25.988281 30.140625 26.40625 28.734375 C 28.382812 22.535156 29.40625 16.085938 29.46875 9.390625 C 29.539062 2.703125 30 -3.804688 30.84375 -10.140625 C 30.988281 -10.847656 31.09375 -11.585938 31.15625 -12.359375 C 31.226562 -13.128906 31.265625 -13.867188 31.265625 -14.578125 C 31.265625 -17.816406 30.453125 -20.175781 28.828125 -21.65625 C 27.210938 -23.132812 24.363281 -23.875 20.28125 -23.875 C 16.757812 -24.15625 13.554688 -25.597656 10.671875 -28.203125 C 7.785156 -30.804688 6.34375 -33.378906 6.34375 -35.921875 C 6.34375 -37.046875 6.941406 -38.554688 8.140625 -40.453125 C 9.335938 -42.359375 10.921875 -43.59375 12.890625 -44.15625 C 18.804688 -46.125 23.414062 -48.796875 26.71875 -52.171875 C 30.03125 -55.554688 32.460938 -59.394531 34.015625 -63.6875 C 35.566406 -67.988281 36.585938 -72.566406 37.078125 -77.421875 C 37.566406 -82.285156 38.023438 -87.1875 38.453125 -92.125 C 39.160156 -100.707031 39.828125 -109.296875 40.453125 -117.890625 C 41.085938 -126.484375 41.828125 -135.078125 42.671875 -143.671875 C 43.941406 -156.910156 49.507812 -163.53125 59.375 -163.53125 C 65.851562 -163.53125 71.660156 -161.769531 76.796875 -158.25 C 81.941406 -154.726562 85.992188 -150.21875 88.953125 -144.71875 C 91.910156 -139.226562 93.390625 -133.457031 93.390625 -127.40625 C 93.390625 -126.695312 93.390625 -125.988281 93.390625 -125.28125 C 93.390625 -124.582031 93.316406 -123.878906 93.171875 -123.171875 Z M 93.171875 -123.171875 "/></g></g></g><g fill="#f0b400" fill-opacity="1"><g transform="translate(385.861937, 211.036831)"><g/></g></g><g fill="#f0b400" fill-opacity="1"><g transform="translate(449.244162, 211.036831)"><g><path d="M 49.4375 -131 C 49.300781 -131.5625 49.234375 -132.085938 49.234375 -132.578125 C 49.234375 -133.066406 49.234375 -133.523438 49.234375 -133.953125 C 49.234375 -138.878906 50.601562 -142.75 53.34375 -145.5625 C 56.09375 -148.382812 59.300781 -149.796875 62.96875 -149.796875 C 67.050781 -149.796875 70.320312 -148.632812 72.78125 -146.3125 C 75.25 -143.988281 77.148438 -140.992188 78.484375 -137.328125 C 79.828125 -133.671875 80.707031 -129.796875 81.125 -125.703125 C 81.550781 -121.617188 81.765625 -117.75 81.765625 -114.09375 C 81.765625 -107.613281 81.34375 -101.0625 80.5 -94.4375 C 79.65625 -87.820312 79.234375 -81.203125 79.234375 -74.578125 C 79.234375 -68.097656 79.796875 -61.617188 80.921875 -55.140625 C 82.046875 -48.660156 82.609375 -42.179688 82.609375 -35.703125 C 82.609375 -29.648438 81.304688 -24.367188 78.703125 -19.859375 C 76.097656 -15.347656 72.785156 -11.648438 68.765625 -8.765625 C 64.753906 -5.878906 60.566406 -3.734375 56.203125 -2.328125 C 51.835938 -0.921875 47.820312 -0.21875 44.15625 -0.21875 C 37.394531 -0.21875 31.125 -2.398438 25.34375 -6.765625 C 19.570312 -11.128906 14.785156 -16.757812 10.984375 -23.65625 C 7.179688 -30.5625 4.925781 -37.816406 4.21875 -45.421875 C 5.351562 -50.066406 7.328125 -53.585938 10.140625 -55.984375 C 12.953125 -58.378906 15.910156 -59.578125 19.015625 -59.578125 C 21.972656 -59.578125 24.820312 -58.484375 27.5625 -56.296875 C 30.3125 -54.117188 32.320312 -50.632812 33.59375 -45.84375 C 35.425781 -39.082031 37.429688 -34.785156 39.609375 -32.953125 C 41.796875 -31.128906 43.804688 -30.21875 45.640625 -30.21875 C 48.597656 -30.21875 50.601562 -31.378906 51.65625 -33.703125 C 52.71875 -36.023438 53.25 -38.945312 53.25 -42.46875 C 53.25 -47.257812 52.71875 -52.398438 51.65625 -57.890625 C 50.601562 -63.378906 50.078125 -67.675781 50.078125 -70.78125 C 50.078125 -79.375 50.425781 -87.507812 51.125 -95.1875 C 51.832031 -102.863281 52.1875 -110.570312 52.1875 -118.3125 C 52.1875 -120.289062 52.007812 -122.226562 51.65625 -124.125 C 51.300781 -126.03125 50.5625 -128.320312 49.4375 -131 Z M 49.4375 -131 "/></g></g></g><g fill="#f0b400" fill-opacity="1"><g transform="translate(544.528741, 211.036831)"><g><path d="M 26.625 7.8125 C 20.28125 7.394531 15.3125 5.492188 11.71875 2.109375 C 8.132812 -1.265625 6.34375 -5.421875 6.34375 -10.359375 C 6.34375 -13.316406 6.972656 -16.34375 8.234375 -19.4375 C 11.898438 -28.03125 16.832031 -35.457031 23.03125 -41.71875 C 29.226562 -47.988281 37.113281 -52.179688 46.6875 -54.296875 C 49.507812 -55.003906 52.222656 -55.742188 54.828125 -56.515625 C 57.429688 -57.296875 59.929688 -58.8125 62.328125 -61.0625 C 66.691406 -65.144531 71.054688 -67.1875 75.421875 -67.1875 C 78.660156 -67.1875 81.65625 -65.953125 84.40625 -63.484375 C 87.15625 -61.023438 89.019531 -57.328125 90 -52.390625 C 90.707031 -48.867188 91.660156 -45.59375 92.859375 -42.5625 C 94.054688 -39.539062 96.273438 -36.972656 99.515625 -34.859375 C 101.203125 -33.734375 102.679688 -32.429688 103.953125 -30.953125 C 105.222656 -29.472656 105.859375 -27.75 105.859375 -25.78125 C 105.859375 -22.257812 104.765625 -19.507812 102.578125 -17.53125 C 100.390625 -15.5625 97.78125 -14.1875 94.75 -13.40625 C 91.726562 -12.632812 88.945312 -12.25 86.40625 -12.25 C 83.738281 -12.25 81.132812 -12.566406 78.59375 -13.203125 C 76.0625 -13.835938 73.597656 -15.070312 71.203125 -16.90625 C 68.671875 -18.875 66.273438 -19.859375 64.015625 -19.859375 C 60.640625 -19.859375 57.679688 -17.601562 55.140625 -13.09375 C 53.304688 -9.851562 50.835938 -6.578125 47.734375 -3.265625 C 44.640625 0.0351562 41.472656 2.773438 38.234375 4.953125 C 34.992188 7.140625 32.039062 8.234375 29.375 8.234375 C 28.664062 8.234375 27.75 8.09375 26.625 7.8125 Z M 26.625 7.8125 "/></g></g></g><g fill="#f0b400" fill-opacity="1"><g transform="translate(656.715202, 211.036831)"><g><path d="M 91.703125 -97.40625 C 93.804688 -96.84375 96.09375 -96.207031 98.5625 -95.5 C 101.03125 -94.789062 103.144531 -93.734375 104.90625 -92.328125 C 106.664062 -90.921875 107.546875 -88.804688 107.546875 -85.984375 C 107.546875 -83.453125 106.3125 -81.484375 103.84375 -80.078125 C 101.375 -78.671875 99.085938 -77.191406 96.984375 -75.640625 C 94.722656 -73.953125 92.253906 -73.070312 89.578125 -73 C 86.898438 -72.925781 84.296875 -72.75 81.765625 -72.46875 C 75.710938 -72.039062 70.816406 -71.050781 67.078125 -69.5 C 63.347656 -67.957031 60.351562 -65.601562 58.09375 -62.4375 C 55.84375 -59.269531 53.875 -54.9375 52.1875 -49.4375 C 50.914062 -45.070312 49.859375 -40.738281 49.015625 -36.4375 C 48.171875 -32.144531 47.675781 -27.742188 47.53125 -23.234375 C 47.394531 -19.015625 45.847656 -15.316406 42.890625 -12.140625 C 39.929688 -8.972656 36.476562 -7.390625 32.53125 -7.390625 C 30.28125 -7.390625 27.816406 -8.09375 25.140625 -9.5 C 22.460938 -10.914062 20.066406 -12.710938 17.953125 -14.890625 C 15.847656 -17.078125 14.507812 -19.367188 13.9375 -21.765625 C 13.375 -23.734375 13.054688 -25.738281 12.984375 -27.78125 C 12.921875 -29.820312 12.890625 -31.832031 12.890625 -33.8125 C 12.890625 -35.351562 12.921875 -36.898438 12.984375 -38.453125 C 13.054688 -40.003906 13.09375 -41.484375 13.09375 -42.890625 C 13.09375 -45.566406 12.953125 -48.242188 12.671875 -50.921875 C 12.390625 -53.597656 11.828125 -56.273438 10.984375 -58.953125 C 10.703125 -59.515625 10.5625 -60.425781 10.5625 -61.6875 C 10.5625 -65.070312 12.390625 -68.3125 16.046875 -71.40625 C 19.710938 -74.507812 24.148438 -77.570312 29.359375 -80.59375 C 34.578125 -83.625 39.367188 -86.476562 43.734375 -89.15625 C 46.691406 -90.988281 49.753906 -92.570312 52.921875 -93.90625 C 56.097656 -95.25 59.515625 -95.921875 63.171875 -95.921875 C 64.859375 -95.921875 66.546875 -95.742188 68.234375 -95.390625 C 69.929688 -95.035156 71.625 -94.859375 73.3125 -94.859375 C 76.414062 -94.859375 79.476562 -95.140625 82.5 -95.703125 C 85.53125 -96.273438 88.597656 -96.84375 91.703125 -97.40625 Z M 91.703125 -97.40625 "/></g></g></g><g fill="#f0b400" fill-opacity="1"><g transform="translate(743.126075, 211.036831)"><g><path d="M 81.984375 -66.96875 C 84.796875 -65.5625 87.539062 -64.859375 90.21875 -64.859375 C 93.738281 -64.859375 97.503906 -66.300781 101.515625 -69.1875 C 105.535156 -72.082031 109.476562 -75.816406 113.34375 -80.390625 C 117.21875 -84.972656 120.773438 -89.726562 124.015625 -94.65625 C 127.253906 -99.582031 129.789062 -104.160156 131.625 -108.390625 C 133.175781 -111.910156 134.582031 -115.320312 135.84375 -118.625 C 137.113281 -121.9375 137.75 -125.425781 137.75 -129.09375 C 137.75 -132.050781 137.1875 -135.148438 136.0625 -138.390625 C 134.9375 -141.628906 134.375 -144.65625 134.375 -147.46875 C 134.375 -150.289062 135.039062 -153.25 136.375 -156.34375 C 137.71875 -159.445312 139.410156 -162.441406 141.453125 -165.328125 C 143.492188 -168.210938 145.640625 -170.535156 147.890625 -172.296875 C 150.148438 -174.054688 152.195312 -174.9375 154.03125 -174.9375 C 155.71875 -174.9375 157.789062 -174.265625 160.25 -172.921875 C 162.71875 -171.585938 164.9375 -169.898438 166.90625 -167.859375 C 168.882812 -165.816406 169.875 -163.738281 169.875 -161.625 C 169.875 -161.207031 169.734375 -160.4375 169.453125 -159.3125 C 167.898438 -153.113281 166.703125 -146.773438 165.859375 -140.296875 C 165.015625 -133.816406 163.921875 -127.40625 162.578125 -121.0625 C 161.242188 -114.726562 159.023438 -108.460938 155.921875 -102.265625 C 145.222656 -80.992188 131.175781 -62.046875 113.78125 -45.421875 C 96.382812 -28.804688 76.910156 -15.921875 55.359375 -6.765625 C 52.679688 -5.640625 49.929688 -4.546875 47.109375 -3.484375 C 44.296875 -2.429688 41.335938 -1.90625 38.234375 -1.90625 C 29.648438 -1.90625 22.890625 -3.976562 17.953125 -8.125 C 13.023438 -12.28125 10.5625 -17.316406 10.5625 -23.234375 C 10.5625 -25.628906 10.945312 -28.0625 11.71875 -30.53125 C 12.5 -33 13.734375 -35.5 15.421875 -38.03125 C 20.773438 -45.914062 27.113281 -52.179688 34.4375 -56.828125 C 41.757812 -61.484375 50.210938 -64.375 59.796875 -65.5 C 63.453125 -65.632812 67.179688 -65.804688 70.984375 -66.015625 C 74.785156 -66.234375 78.453125 -66.550781 81.984375 -66.96875 Z M 81.984375 -66.96875 "/></g></g></g><g fill="#f0b400" fill-opacity="1"><g transform="translate(902.427108, 211.036831)"><g><path d="M 25.359375 -42.46875 C 28.878906 -42.1875 32.007812 -40.742188 34.75 -38.140625 C 37.5 -35.535156 39.679688 -32.398438 41.296875 -28.734375 C 42.921875 -25.066406 43.734375 -21.40625 43.734375 -17.75 C 43.734375 -14.226562 42.289062 -10.707031 39.40625 -7.1875 C 36.519531 -3.664062 33.035156 -1.90625 28.953125 -1.90625 C 25.710938 -1.90625 22.679688 -3.207031 19.859375 -5.8125 C 17.046875 -8.414062 14.789062 -11.796875 13.09375 -15.953125 C 11.40625 -20.109375 10.5625 -24.367188 10.5625 -28.734375 C 10.5625 -34.222656 12.003906 -37.882812 14.890625 -39.71875 C 17.785156 -41.550781 21.273438 -42.46875 25.359375 -42.46875 Z M 41.625 -100.359375 C 41.0625 -95.992188 39.441406 -92.222656 36.765625 -89.046875 C 34.085938 -85.878906 30.988281 -84.296875 27.46875 -84.296875 C 22.957031 -84.296875 19.046875 -85.84375 15.734375 -88.9375 C 12.429688 -92.039062 10.78125 -95.492188 10.78125 -99.296875 C 10.78125 -103.378906 12.257812 -107.003906 15.21875 -110.171875 C 18.175781 -113.347656 21.765625 -114.9375 25.984375 -114.9375 C 28.660156 -114.9375 31.160156 -114.160156 33.484375 -112.609375 C 35.804688 -111.054688 37.742188 -109.15625 39.296875 -106.90625 C 40.847656 -104.65625 41.625 -102.472656 41.625 -100.359375 Z M 41.625 -100.359375 "/></g></g></g><g fill="#f0b400" fill-opacity="1"><g transform="translate(952.499081, 211.036831)"><g><path d="M 6.34375 -46.265625 C 7.039062 -52.890625 8.445312 -58.242188 10.5625 -62.328125 C 12.675781 -66.410156 16.757812 -68.875 22.8125 -69.71875 C 25.632812 -70 28.066406 -70.945312 30.109375 -72.5625 C 32.148438 -74.1875 34.296875 -75.707031 36.546875 -77.125 C 39.367188 -79.507812 41.726562 -81.226562 43.625 -82.28125 C 45.53125 -83.34375 47.398438 -83.875 49.234375 -83.875 C 50.921875 -83.875 52.710938 -83.34375 54.609375 -82.28125 C 56.515625 -81.226562 58.804688 -79.648438 61.484375 -77.546875 C 63.734375 -75.847656 65.664062 -73.875 67.28125 -71.625 C 68.90625 -69.375 70.703125 -67.398438 72.671875 -65.703125 C 74.648438 -64.015625 77.1875 -63.171875 80.28125 -63.171875 C 82.957031 -63.171875 85.242188 -63.875 87.140625 -65.28125 C 89.046875 -66.695312 90.84375 -68.390625 92.53125 -70.359375 C 94.226562 -72.328125 95.992188 -74.015625 97.828125 -75.421875 C 103.597656 -79.929688 109.019531 -83.242188 114.09375 -85.359375 C 119.164062 -87.472656 123.671875 -88.53125 127.609375 -88.53125 C 133.390625 -88.53125 138.460938 -86.378906 142.828125 -82.078125 C 147.191406 -77.785156 151.488281 -71.273438 155.71875 -62.546875 C 158.113281 -57.609375 161.070312 -53.023438 164.59375 -48.796875 C 168.113281 -44.578125 171.242188 -40.492188 173.984375 -36.546875 C 176.734375 -32.609375 178.109375 -28.523438 178.109375 -24.296875 C 178.109375 -22.046875 177.507812 -19.6875 176.3125 -17.21875 C 175.113281 -14.75 173.492188 -12.671875 171.453125 -10.984375 C 169.410156 -9.296875 167.125 -8.453125 164.59375 -8.453125 C 161.632812 -8.453125 158.566406 -9.859375 155.390625 -12.671875 C 152.222656 -15.492188 149.085938 -18.984375 145.984375 -23.140625 C 142.890625 -27.296875 139.929688 -31.414062 137.109375 -35.5 C 134.296875 -39.582031 131.726562 -43.03125 129.40625 -45.84375 C 127.082031 -48.664062 125.078125 -50.078125 123.390625 -50.078125 C 121.554688 -50.078125 119.085938 -48.628906 115.984375 -45.734375 C 112.890625 -42.847656 109.472656 -39.328125 105.734375 -35.171875 C 102.003906 -31.023438 98.378906 -27.046875 94.859375 -23.234375 C 92.609375 -20.703125 90.078125 -19.4375 87.265625 -19.4375 C 85.285156 -19.4375 82.710938 -20.351562 79.546875 -22.1875 C 76.378906 -24.019531 73 -26.238281 69.40625 -28.84375 C 65.8125 -31.445312 62.320312 -34.085938 58.9375 -36.765625 C 55.5625 -39.441406 52.710938 -41.691406 50.390625 -43.515625 C 48.066406 -45.347656 46.625 -46.265625 46.0625 -46.265625 C 44.226562 -46.265625 42.816406 -45.242188 41.828125 -43.203125 C 40.847656 -41.160156 40.003906 -38.660156 39.296875 -35.703125 C 38.585938 -32.742188 37.707031 -29.785156 36.65625 -26.828125 C 35.601562 -23.867188 34.125 -21.367188 32.21875 -19.328125 C 30.320312 -17.285156 27.679688 -16.265625 24.296875 -16.265625 C 20.066406 -16.265625 16.828125 -17.425781 14.578125 -19.75 C 12.328125 -22.070312 10.671875 -24.921875 9.609375 -28.296875 C 8.554688 -31.679688 7.851562 -35.03125 7.5 -38.34375 C 7.144531 -41.65625 6.757812 -44.296875 6.34375 -46.265625 Z M 6.34375 -46.265625 "/></g></g></g></g></g></svg>